<svg width="33" height="30" viewBox="0 0 33 30" fill="none" xmlns="http://www.w3.org/2000/svg">
<path d="M30.5938 1L18.4312 9.99953L20.6929 4.69581L30.5938 1Z" fill="#E17726" stroke="#E17726" stroke-width="0.25" stroke-linecap="round" stroke-linejoin="round"/>
<path d="M2.54053 1L14.5949 10.0835L12.4415 4.6958L2.54053 1Z" fill="#E27625" stroke="#E27625" stroke-width="0.25" stroke-linecap="round" stroke-linejoin="round"/>
<path d="M26.2156 21.8667L22.9795 26.8105L29.9089 28.7184L31.894 21.9748L26.2156 21.8667Z" fill="#E27625" stroke="#E27625" stroke-width="0.25" stroke-linecap="round" stroke-linejoin="round"/>
<path d="M1.25195 21.9748L3.22492 28.7184L10.1424 26.8105L6.91823 21.8667L1.25195 21.9748Z" fill="#E27625" stroke="#E27625" stroke-width="0.25" stroke-linecap="round" stroke-linejoin="round"/>
<path d="M9.77052 13.5153L7.8457 16.4192L14.703 16.7312L14.4744 9.35156L9.77052 13.5153Z" fill="#E27625" stroke="#E27625" stroke-width="0.25" stroke-linecap="round" stroke-linejoin="round"/>
<path d="M23.3635 13.5153L18.5876 9.26758L18.4312 16.7312L25.2884 16.4192L23.3635 13.5153Z" fill="#E27625" stroke="#E27625" stroke-width="0.25" stroke-linecap="round" stroke-linejoin="round"/>
<path d="M10.1426 26.8107L14.293 24.8068L10.7201 22.0229L10.1426 26.8107Z" fill="#E27625" stroke="#E27625" stroke-width="0.25" stroke-linecap="round" stroke-linejoin="round"/>
<path d="M18.8403 24.8068L22.9787 26.8107L22.4133 22.0229L18.8403 24.8068Z" fill="#E27625" stroke="#E27625" stroke-width="0.25" stroke-linecap="round" stroke-linejoin="round"/>
<path d="M22.9787 26.8107L18.8403 24.8069L19.1771 27.4947L19.141 28.6347L22.9787 26.8107Z" fill="#D5BFB2" stroke="#D5BFB2" stroke-width="0.25" stroke-linecap="round" stroke-linejoin="round"/>
<path d="M10.1426 26.8107L13.9923 28.6347L13.9682 27.4947L14.293 24.8069L10.1426 26.8107Z" fill="#D5BFB2" stroke="#D5BFB2" stroke-width="0.25" stroke-linecap="round" stroke-linejoin="round"/>
<path d="M14.0642 20.2469L10.6235 19.239L13.0536 18.123L14.0642 20.2469Z" fill="#233447" stroke="#233447" stroke-width="0.25" stroke-linecap="round" stroke-linejoin="round"/>
<path d="M19.0693 20.2469L20.0799 18.123L22.5221 19.239L19.0693 20.2469Z" fill="#233447" stroke="#233447" stroke-width="0.25" stroke-linecap="round" stroke-linejoin="round"/>
<path d="M10.143 26.8105L10.7446 21.8667L6.91895 21.9748L10.143 26.8105Z" fill="#CC6228" stroke="#CC6228" stroke-width="0.25" stroke-linecap="round" stroke-linejoin="round"/>
<path d="M22.3896 21.8667L22.9792 26.8105L26.2153 21.9748L22.3896 21.8667Z" fill="#CC6228" stroke="#CC6228" stroke-width="0.25" stroke-linecap="round" stroke-linejoin="round"/>
<path d="M25.2884 16.4192L18.4312 16.7312L19.0687 20.2471L20.0793 18.1231L22.5215 19.2391L25.2884 16.4192Z" fill="#CC6228" stroke="#CC6228" stroke-width="0.25" stroke-linecap="round" stroke-linejoin="round"/>
<path d="M10.6247 19.2391L13.0548 18.1231L14.0654 20.2471L14.703 16.7312L7.8457 16.4192L10.6247 19.2391Z" fill="#CC6228" stroke="#CC6228" stroke-width="0.25" stroke-linecap="round" stroke-linejoin="round"/>
<path d="M7.84668 16.4192L10.7219 22.0229L10.6256 19.2391L7.84668 16.4192Z" fill="#E27525" stroke="#E27525" stroke-width="0.25" stroke-linecap="round" stroke-linejoin="round"/>
<path d="M22.5223 19.2391L22.4141 22.0229L25.2893 16.4192L22.5223 19.2391Z" fill="#E27525" stroke="#E27525" stroke-width="0.25" stroke-linecap="round" stroke-linejoin="round"/>
<path d="M14.7031 16.7312L14.0654 20.2471L14.8715 24.3988L15.0519 18.9271L14.7031 16.7312Z" fill="#E27525" stroke="#E27525" stroke-width="0.25" stroke-linecap="round" stroke-linejoin="round"/>
<path d="M18.4311 16.7312L18.0942 18.9152L18.2627 24.3988L19.0687 20.2471L18.4311 16.7312Z" fill="#E27525" stroke="#E27525" stroke-width="0.25" stroke-linecap="round" stroke-linejoin="round"/>
<path d="M19.0692 20.247L18.2632 24.3987L18.8407 24.8067L22.4137 22.0229L22.5219 19.239L19.0692 20.247Z" fill="#F5841F" stroke="#F5841F" stroke-width="0.25" stroke-linecap="round" stroke-linejoin="round"/>
<path d="M10.6235 19.239L10.7198 22.0229L14.2928 24.8067L14.8703 24.3987L14.0642 20.247L10.6235 19.239Z" fill="#F5841F" stroke="#F5841F" stroke-width="0.25" stroke-linecap="round" stroke-linejoin="round"/>
<path d="M19.1413 28.6345L19.1773 27.4945L18.8646 27.2305H14.269L13.9682 27.4945L13.9923 28.6345L10.1426 26.8105L11.49 27.9145L14.2209 29.7984H18.9006L21.6435 27.9145L22.9789 26.8105L19.1413 28.6345Z" fill="#C0AC9D" stroke="#C0AC9D" stroke-width="0.25" stroke-linecap="round" stroke-linejoin="round"/>
<path d="M18.8415 24.8066L18.264 24.3987H14.8715L14.2941 24.8066L13.9692 27.4945L14.27 27.2305H18.8656L19.1784 27.4945L18.8415 24.8066Z" fill="#161616" stroke="#161616" stroke-width="0.25" stroke-linecap="round" stroke-linejoin="round"/>
<path d="M31.1112 10.5875L32.1338 5.61976L30.5939 1L18.8403 9.69958L23.3637 13.5153L29.7518 15.3753L31.1593 13.7314L30.5458 13.2873L31.5202 12.3994L30.7744 11.8235L31.7489 11.0795L31.1112 10.5875Z" fill="#763E1A" stroke="#763E1A" stroke-width="0.25" stroke-linecap="round" stroke-linejoin="round"/>
<path d="M1 5.61976L2.03461 10.5875L1.37294 11.0795L2.35943 11.8235L1.61355 12.3994L2.588 13.2873L1.97445 13.7314L3.382 15.3753L9.77015 13.5153L14.2935 9.69958L2.53988 1L1 5.61976Z" fill="#763E1A" stroke="#763E1A" stroke-width="0.25" stroke-linecap="round" stroke-linejoin="round"/>
<path d="M29.7526 15.3752L23.3645 13.5154L25.2893 16.4193L22.4141 22.0229L26.2156 21.9749H31.8939L29.7526 15.3752Z" fill="#F5841F" stroke="#F5841F" stroke-width="0.25" stroke-linecap="round" stroke-linejoin="round"/>
<path d="M9.76937 13.5154L3.38132 15.3752L1.25195 21.9749H6.91823L10.7198 22.0229L7.84456 16.4193L9.76937 13.5154Z" fill="#F5841F" stroke="#F5841F" stroke-width="0.25" stroke-linecap="round" stroke-linejoin="round"/>
<path d="M18.432 16.7312L18.8411 9.6995L20.6937 4.6958H12.4409L14.2936 9.6995L14.7026 16.7312L14.859 18.9391L14.871 24.3988H18.2636L18.2756 18.9391L18.432 16.7312Z" fill="#F5841F" stroke="#F5841F" stroke-width="0.25" stroke-linecap="round" stroke-linejoin="round"/>
</svg>
