<svg width="25" height="25" viewBox="0 0 25 25" fill="none" xmlns="http://www.w3.org/2000/svg">
<path d="M22.5 16.0484C22.5003 16.0772 22.4922 16.1056 22.4766 16.1298C22.4609 16.1541 22.4385 16.1732 22.4121 16.1849C22.0836 16.3241 20.9656 16.8405 20.5005 17.4853C19.3136 19.1371 18.4078 21.5 16.3799 21.5H7.92518C7.21133 21.4989 6.50469 21.3572 5.84563 21.083C5.18658 20.8087 4.58804 20.4073 4.08421 19.9016C3.58038 19.396 3.18115 18.796 2.90933 18.136C2.6375 17.476 2.49841 16.7689 2.50001 16.0551V15.9578C2.50001 15.8794 2.5649 15.8145 2.64602 15.8145H7.35738C7.45202 15.8145 7.51961 15.8997 7.51285 15.9929C7.4777 16.2984 7.53583 16.6134 7.68184 16.8986C7.96033 17.4664 8.54165 17.8205 9.16757 17.8205H11.5009V15.9997H9.19191C9.16485 15.9994 9.13838 15.9918 9.11536 15.9775C9.09234 15.9633 9.07363 15.9431 9.06125 15.919C9.04887 15.895 9.04329 15.868 9.04511 15.841C9.04694 15.814 9.05609 15.788 9.07159 15.7658L9.15676 15.6442C9.37306 15.3319 9.68535 14.8521 9.99629 14.3032C10.2072 13.9329 10.4127 13.5382 10.5776 13.1407C10.61 13.0704 10.6357 12.9961 10.6655 12.9245C10.7101 12.7974 10.7561 12.6784 10.7885 12.5608C10.8203 12.4611 10.8496 12.3606 10.8764 12.2594C10.9534 11.9214 10.9859 11.5646 10.9859 11.1956C10.9859 11.0496 10.9805 10.8968 10.967 10.7535C10.9602 10.5954 10.9399 10.4359 10.921 10.2777C10.9059 10.1362 10.8842 9.99547 10.8561 9.85596C10.8197 9.64354 10.7755 9.43252 10.7236 9.22334L10.7047 9.14224C10.6641 8.99625 10.629 8.85837 10.583 8.71373C10.4543 8.26955 10.3063 7.83117 10.1396 7.39982C10.0815 7.23757 10.0175 7.0775 9.94762 6.91995C9.85028 6.67934 9.75024 6.4617 9.65967 6.25759C9.6146 6.17014 9.57222 6.08133 9.53259 5.99129C9.48862 5.89415 9.44219 5.79815 9.39334 5.70337C9.3609 5.63172 9.32169 5.56278 9.296 5.4979L9.01075 4.97342C8.97155 4.90177 9.03644 4.81391 9.11485 4.83689L10.8994 5.31947H10.9129L11.1468 5.38706L11.4063 5.46005L11.5009 5.48573V4.42731C11.5009 3.91499 11.9092 3.5 12.4189 3.5C12.5392 3.49968 12.6584 3.5237 12.7692 3.57063C12.88 3.61755 12.9802 3.68641 13.0637 3.77306C13.2364 3.94714 13.3335 4.18217 13.3341 4.42731V6.00075L13.5247 6.05347C13.5383 6.06023 13.5545 6.06699 13.5666 6.07645C13.6126 6.10889 13.6802 6.16026 13.7654 6.22515C13.833 6.27651 13.9046 6.3414 13.9884 6.41034C14.2554 6.62781 14.5142 6.85506 14.7644 7.09162C15.0537 7.36062 15.3782 7.67558 15.6891 8.02569C15.777 8.12572 15.8608 8.22304 15.9487 8.33118C16.0325 8.43797 16.1271 8.54206 16.2056 8.64479C16.3124 8.78537 16.4219 8.93136 16.5233 9.08276C16.5679 9.1544 16.6233 9.22875 16.6652 9.30039C16.795 9.49234 16.9058 9.6897 17.0126 9.88841C17.0586 9.97897 17.1032 10.079 17.1424 10.1763C17.2627 10.4426 17.3574 10.7116 17.4155 10.9847C17.4347 11.0426 17.4479 11.1024 17.4547 11.1631V11.1766C17.4736 11.2537 17.4804 11.3388 17.4872 11.4254C17.5252 11.8249 17.4763 12.2279 17.3439 12.6068C17.3019 12.7203 17.2627 12.8366 17.2114 12.9501C17.11 13.1799 16.9937 13.4138 16.8545 13.6287C16.8085 13.7098 16.7531 13.7936 16.7017 13.8747C16.6436 13.9599 16.5814 14.041 16.53 14.1181C16.4557 14.2204 16.3777 14.3201 16.2961 14.4168C16.2245 14.5141 16.1528 14.6114 16.0717 14.6993C15.9622 14.8318 15.8554 14.9561 15.7405 15.0751C15.6756 15.1535 15.6053 15.2346 15.5296 15.3049C15.4593 15.386 15.3836 15.4576 15.3187 15.5225C15.2052 15.6361 15.1159 15.7212 15.0375 15.7956L14.8523 15.9605C14.8265 15.9864 14.7915 16.001 14.755 16.0011H13.3341V17.8205H15.1213C15.5201 17.8205 15.9 17.6799 16.2083 17.4177L16.2119 17.4145C16.3226 17.3182 16.7754 16.9244 17.3114 16.3336C17.3291 16.3132 17.3527 16.299 17.379 16.293L22.3134 14.8642C22.3351 14.858 22.3579 14.8568 22.3801 14.8608C22.4023 14.8649 22.4232 14.874 22.4413 14.8875C22.4594 14.901 22.4741 14.9185 22.4843 14.9386C22.4945 14.9587 22.4998 14.9809 22.5 15.0035V16.0484Z" fill="white"/>
<path d="M3.68968 13.7774L3.75863 13.6679L7.98061 7.06594C7.99475 7.04424 8.01446 7.02673 8.03768 7.01525C8.0609 7.00376 8.08677 6.99873 8.11261 7.00066C8.13844 7.00259 8.16328 7.01143 8.18453 7.02624C8.20578 7.04105 8.22266 7.0613 8.23341 7.08486C8.9364 8.66507 9.54746 10.6305 9.26086 11.8539C9.14189 12.3567 8.80797 13.038 8.43079 13.6679C8.3824 13.7601 8.32962 13.8498 8.27262 13.9369C8.25897 13.9563 8.2407 13.9721 8.21946 13.9827C8.19822 13.9933 8.17468 13.9985 8.15095 13.9977H3.81541C3.78953 13.9981 3.76403 13.9915 3.74161 13.9786C3.71919 13.9657 3.70069 13.9469 3.68807 13.9243C3.67546 13.9017 3.6692 13.8761 3.66996 13.8503C3.67072 13.8244 3.67847 13.7992 3.69239 13.7774H3.68968Z" fill="white"/>
</svg>
